<svg width="810" height="356" viewBox="0 0 810 356" fill="none" xmlns="http://www.w3.org/2000/svg">
<path d="M277.2 127.931L198.375 121.911L101.33 261.498L128.428 288.464L277.2 127.931Z" fill="#5E5E5E" fill-opacity="0.2"/>
<path d="M277.2 127.931L267.887 21.8053L197.408 123.07L277.2 127.931Z" fill="url(#paint0_linear_495_3)"/>
<path d="M154.275 289.692L102.223 262.489L48.0019 341.912L85.0108 342.056L154.275 289.692Z" fill="url(#paint1_linear_495_3)"/>
<path d="M85.0108 342.056L282.937 191.485L295.565 331.359L85.0108 342.056Z" fill="url(#paint2_linear_495_3)"/>
<path d="M48.0019 341.912L267.887 21.8053L126.045 12.6274L7.87412 111.228L48.0019 341.912Z" fill="url(#paint3_linear_495_3)"/>
<path d="M357.848 258.732C362.632 258.732 366.428 257.276 369.236 254.364C372.044 251.452 373.448 247.916 373.448 243.756C373.448 239.492 372.096 236.32 369.392 234.24C366.792 232.056 363.412 230.964 359.252 230.964H353.012L350.36 258.732H357.848ZM375.476 211.464C386.604 211.464 395.496 214.116 402.152 219.42C408.912 224.62 412.292 232.368 412.292 242.664C412.292 246.408 411.512 249.996 409.952 253.428C408.392 256.756 406.52 259.46 404.336 261.54C399.76 265.7 395.548 268.664 391.7 270.432L389.36 271.368L406.208 306H378.908L348.644 275.58L345.68 306H315.26L305.9 211.464H375.476ZM489.48 306L483.24 290.244H443.46L437.532 306H415.38L441.744 211.464H497.28L523.644 306H489.48ZM475.284 269.964L462.96 238.764L451.104 269.964H475.284ZM595.769 247.032V261.54L569.561 268.092L565.817 306H535.397L526.037 211.464H597.797L602.633 230.808L573.149 232.68L571.589 247.032H595.769ZM696.74 211.464L699.86 241.104L674.744 236.112L667.724 306H637.304L630.284 236.112L605.012 241.104L608.132 211.464H696.74ZM775.582 306L769.342 290.244H729.562L723.634 306H701.482L727.846 211.464H783.382L809.746 306H775.582ZM761.386 269.964L749.062 238.764L737.206 269.964H761.386Z" fill="url(#paint4_linear_495_3)"/>
<defs>
<linearGradient id="paint0_linear_495_3" x1="234.053" y1="86.5196" x2="277.49" y2="128.173" gradientUnits="userSpaceOnUse">
<stop stop-color="#094845"/>
<stop offset="1" stop-color="#1BB8B0"/>
</linearGradient>
<linearGradient id="paint1_linear_495_3" x1="80.2538" y1="333.907" x2="123.046" y2="285.273" gradientUnits="userSpaceOnUse">
<stop offset="0.160722" stop-color="#094845"/>
<stop offset="1" stop-color="#1BB8B0"/>
</linearGradient>
<linearGradient id="paint2_linear_495_3" x1="297.718" y1="328.483" x2="143.073" y2="305.18" gradientUnits="userSpaceOnUse">
<stop stop-color="#00CFC5"/>
<stop offset="1" stop-color="#09706A"/>
</linearGradient>
<linearGradient id="paint3_linear_495_3" x1="152.368" y1="16.149" x2="56.2657" y2="308.728" gradientUnits="userSpaceOnUse">
<stop stop-color="#00CFC5"/>
<stop offset="1" stop-color="#09706A"/>
</linearGradient>
<linearGradient id="paint4_linear_495_3" x1="302" y1="260.5" x2="809" y2="260.5" gradientUnits="userSpaceOnUse">
<stop stop-color="#00CFC5"/>
<stop offset="1" stop-color="#09706A"/>
</linearGradient>
</defs>
</svg>
